<svg width="1356" height="474" fill="none" xmlns="http://www.w3.org/2000/svg"><path fill="#fff" d="M0 0h1356v474H0z"/><rect x="101.5" y="89.5" width="192" height="101" rx="13.5" fill="#88CDEA" stroke="#000"/><rect x="101.5" y="206.5" width="192" height="101" rx="13.5" fill="#88CDEA" stroke="#000"/><rect x="101.5" y="323.5" width="192" height="101" rx="13.5" fill="#88CDEA" stroke="#000"/><path d="M1220.17 258.99V264h-1.68v-12.797h4.72c1.4 0 2.49.358 3.28 1.072.8.715 1.2 1.662 1.2 2.839 0 1.242-.39 2.2-1.17 2.874-.77.668-1.89 1.002-3.33 1.002h-3.02zm0-1.38h3.04c.9 0 1.59-.211 2.07-.632.48-.428.72-1.043.72-1.846 0-.762-.24-1.371-.72-1.828-.48-.457-1.14-.695-1.98-.712h-3.13v5.018zm11.18 6.39h-1.62v-9.51h1.62V264zm-1.76-12.032c0-.264.08-.487.24-.668.17-.182.41-.273.72-.273.32 0 .56.091.72.273.17.181.25.404.25.668 0 .263-.08.483-.25.659-.16.176-.4.264-.72.264-.31 0-.55-.088-.72-.264a.943.943 0 01-.24-.659zm7.56 5.994l2.11-3.472h1.9l-3.11 4.702 3.21 4.808h-1.88l-2.2-3.56-2.2 3.56h-1.89l3.21-4.808-3.11-4.702h1.88l2.08 3.472zm9.51 6.214c-1.29 0-2.33-.422-3.14-1.266-.81-.849-1.22-1.983-1.22-3.401v-.299c0-.943.18-1.784.54-2.522.36-.745.87-1.325 1.51-1.741a3.817 3.817 0 012.11-.633c1.24 0 2.2.408 2.88 1.222.69.815 1.03 1.981 1.03 3.498v.677h-6.44c.02.937.3 1.696.82 2.276.52.575 1.19.862 2 .862.58 0 1.06-.118 1.46-.352.4-.234.75-.545 1.05-.932l.99.774c-.8 1.224-1.99 1.837-3.59 1.837zm-.2-8.526c-.66 0-1.21.241-1.65.721-.45.475-.72 1.143-.83 2.004h4.77v-.123c-.05-.826-.27-1.465-.67-1.916-.4-.457-.94-.686-1.62-.686zm7.57 8.35h-1.63v-13.5h1.63V264zm8.15-2.522c0-.44-.17-.78-.51-1.02-.32-.246-.9-.457-1.73-.633-.82-.176-1.47-.387-1.96-.633-.48-.246-.83-.539-1.07-.879-.23-.339-.34-.744-.34-1.212 0-.78.33-1.439.98-1.978.66-.539 1.51-.809 2.53-.809 1.08 0 1.96.279 2.62.835.68.557 1.01 1.269 1.01 2.136h-1.63c0-.445-.19-.829-.57-1.151-.38-.322-.85-.484-1.43-.484-.59 0-1.05.129-1.38.387a1.21 1.21 0 00-.51 1.011c0 .392.16.688.47.888.31.199.87.389 1.68.571.81.181 1.47.398 1.98.65.5.252.87.557 1.11.914.25.352.37.783.37 1.292 0 .85-.34 1.533-1.02 2.048-.68.51-1.56.765-2.64.765-.76 0-1.44-.135-2.02-.405-.59-.269-1.05-.644-1.38-1.125-.33-.486-.5-1.01-.5-1.573h1.63c.03.545.25.979.65 1.301.41.316.95.475 1.62.475.61 0 1.1-.123 1.47-.37.38-.251.57-.585.57-1.001zm7.77-2.321c0-.931.19-1.769.55-2.513.37-.745.88-1.319 1.53-1.723.65-.404 1.4-.607 2.24-.607 1.29 0 2.34.449 3.14 1.345.8.897 1.2 2.089 1.2 3.577v.115c0 .925-.18 1.757-.53 2.496-.36.732-.86 1.303-1.53 1.714-.65.41-1.41.615-2.26.615-1.29 0-2.34-.448-3.14-1.345-.8-.896-1.2-2.083-1.2-3.56v-.114zm1.64.194c0 1.054.24 1.901.73 2.54.49.638 1.15.958 1.97.958.82 0 1.48-.323 1.97-.967.48-.651.73-1.559.73-2.725 0-1.043-.25-1.886-.75-2.531-.49-.65-1.15-.976-1.97-.976-.8 0-1.45.32-1.94.958-.5.639-.74 1.553-.74 2.743zm10.6-4.861l.05 1.196c.73-.915 1.68-1.372 2.85-1.372 2.01 0 3.02 1.134 3.04 3.402V264h-1.63v-6.293c0-.686-.16-1.192-.47-1.52-.31-.329-.78-.493-1.43-.493-.53 0-.99.141-1.39.422-.4.281-.71.651-.93 1.108V264h-1.63v-9.51h1.54zm18.39 6.988c0-.44-.16-.78-.5-1.02-.33-.246-.9-.457-1.73-.633-.82-.176-1.47-.387-1.96-.633-.48-.246-.84-.539-1.07-.879-.23-.339-.34-.744-.34-1.212 0-.78.32-1.439.98-1.978.66-.539 1.51-.809 2.53-.809 1.08 0 1.95.279 2.62.835.68.557 1.01 1.269 1.01 2.136h-1.63c0-.445-.19-.829-.57-1.151-.38-.322-.85-.484-1.43-.484-.59 0-1.05.129-1.39.387-.33.258-.5.595-.5 1.011 0 .392.16.688.47.888.31.199.87.389 1.68.571.81.181 1.47.398 1.97.65.51.252.88.557 1.12.914.25.352.37.783.37 1.292 0 .85-.34 1.533-1.02 2.048-.68.51-1.56.765-2.65.765-.76 0-1.43-.135-2.02-.405a3.402 3.402 0 01-1.38-1.125 2.816 2.816 0 01-.49-1.573h1.63c.03.545.24.979.65 1.301.41.316.95.475 1.61.475.62 0 1.11-.123 1.48-.37.38-.251.56-.585.56-1.001zm7.56 1.371c.58 0 1.09-.176 1.52-.528.44-.351.68-.791.72-1.318h1.54a2.918 2.918 0 01-.56 1.556c-.35.492-.81.884-1.39 1.177-.57.293-1.18.44-1.83.44-1.29 0-2.32-.431-3.09-1.292-.76-.867-1.14-2.051-1.14-3.551v-.272c0-.926.17-1.749.51-2.47.34-.721.82-1.28 1.46-1.679.63-.398 1.39-.598 2.25-.598 1.07 0 1.95.32 2.66.958.71.639 1.09 1.468 1.13 2.488h-1.54a2.194 2.194 0 00-.7-1.512c-.42-.398-.93-.598-1.55-.598-.82 0-1.46.299-1.92.897-.45.592-.68 1.45-.68 2.575v.308c0 1.095.23 1.939.68 2.531.45.592 1.09.888 1.93.888zm10.21-6.9a4.976 4.976 0 00-.8-.061c-1.07 0-1.79.454-2.17 1.362V264h-1.63v-9.51h1.58l.03 1.099c.53-.85 1.29-1.275 2.27-1.275.31 0 .55.041.72.124v1.511zm5.27 8.227c-1.29 0-2.34-.422-3.15-1.266-.8-.849-1.21-1.983-1.21-3.401v-.299c0-.943.18-1.784.54-2.522.36-.745.86-1.325 1.51-1.741a3.793 3.793 0 012.11-.633c1.23 0 2.2.408 2.88 1.222.69.815 1.03 1.981 1.03 3.498v.677h-6.44c.02.937.29 1.696.81 2.276.53.575 1.2.862 2.01.862.57 0 1.06-.118 1.46-.352.4-.234.74-.545 1.04-.932l1 .774c-.8 1.224-2 1.837-3.59 1.837zm-.2-8.526c-.66 0-1.21.241-1.65.721-.45.475-.73 1.143-.83 2.004h4.76v-.123c-.04-.826-.27-1.465-.66-1.916-.4-.457-.94-.686-1.62-.686zm9.75 8.526c-1.29 0-2.34-.422-3.15-1.266-.81-.849-1.21-1.983-1.21-3.401v-.299c0-.943.17-1.784.53-2.522.37-.745.87-1.325 1.51-1.741a3.817 3.817 0 012.11-.633c1.24 0 2.2.408 2.89 1.222.68.815 1.02 1.981 1.02 3.498v.677h-6.44c.03.937.3 1.696.82 2.276.53.575 1.19.862 2 .862.58 0 1.06-.118 1.46-.352.4-.234.75-.545 1.05-.932l.99.774c-.8 1.224-1.99 1.837-3.58 1.837zm-.21-8.526c-.65 0-1.2.241-1.65.721-.44.475-.72 1.143-.83 2.004h4.77v-.123c-.05-.826-.27-1.465-.67-1.916-.4-.457-.94-.686-1.62-.686zm7.34-1.16l.05 1.196c.73-.915 1.68-1.372 2.85-1.372 2.01 0 3.03 1.134 3.04 3.402V264h-1.62v-6.293c-.01-.686-.17-1.192-.48-1.52-.3-.329-.78-.493-1.43-.493-.53 0-.99.141-1.39.422-.4.281-.71.651-.93 1.108V264h-1.63v-9.51h1.54z" fill="#000"/><rect x="323.5" y="206.5" width="192" height="101" rx="13.5" fill="#FFD7CB" stroke="#000"/><path d="M387.934 262.321c-.434.621-1.04 1.087-1.82 1.398-.773.304-1.676.457-2.707.457-1.043 0-1.969-.243-2.777-.73-.809-.492-1.436-1.189-1.881-2.092-.439-.902-.665-1.948-.677-3.137v-1.116c0-1.928.449-3.422 1.345-4.483.902-1.06 2.168-1.591 3.797-1.591 1.336 0 2.411.343 3.225 1.029.815.679 1.313 1.646 1.495 2.9h-1.688c-.316-1.693-1.324-2.54-3.023-2.54-1.131 0-1.99.398-2.576 1.195-.58.791-.873 1.94-.878 3.446v1.046c0 1.435.328 2.578.984 3.427.656.844 1.544 1.266 2.663 1.266.633 0 1.187-.07 1.661-.211a2.572 2.572 0 001.178-.712v-2.874h-2.962v-1.371h4.641v4.693zm4.517.299h6.065V264h-7.761v-12.797h1.696v11.417zm12.454 1.38v-12.797h4.184c1.389 0 2.432.287 3.129.861.703.575 1.054 1.424 1.054 2.549 0 .598-.169 1.128-.509 1.591-.34.457-.803.812-1.389 1.064.691.193 1.236.562 1.635 1.107.404.539.606 1.184.606 1.934 0 1.148-.372 2.05-1.116 2.707-.744.656-1.796.984-3.155.984h-4.439zm1.688-5.985v4.605h2.786c.785 0 1.403-.202 1.854-.606.457-.41.686-.973.686-1.688 0-1.541-.838-2.311-2.514-2.311h-2.812zm0-1.354h2.549c.738 0 1.327-.184 1.766-.554.446-.369.668-.87.668-1.503 0-.703-.205-1.212-.615-1.529-.41-.322-1.034-.483-1.872-.483h-2.496v4.069zm15.143 6.399c-.632.744-1.561 1.116-2.786 1.116-1.013 0-1.787-.293-2.32-.879-.527-.592-.794-1.465-.8-2.619v-6.188h1.626v6.144c0 1.441.586 2.162 1.758 2.162 1.242 0 2.068-.463 2.478-1.389v-6.917h1.626V264h-1.547l-.035-.94zm4.861.94v-8.253h-1.503v-1.257h1.503v-.975c0-1.02.272-1.808.817-2.365.545-.556 1.315-.835 2.312-.835.375 0 .747.05 1.116.15l-.088 1.318a4.643 4.643 0 00-.879-.079c-.527 0-.935.155-1.222.466-.287.305-.43.744-.43 1.318v1.002h2.03v1.257h-2.03V264h-1.626zm6.257 0v-8.253h-1.502v-1.257h1.502v-.975c0-1.02.273-1.808.818-2.365.545-.556 1.315-.835 2.311-.835.375 0 .747.05 1.117.15l-.088 1.318a4.658 4.658 0 00-.879-.079c-.528 0-.935.155-1.222.466-.287.305-.431.744-.431 1.318v1.002h2.031v1.257h-2.031V264h-1.626zm9.194.176c-1.289 0-2.338-.422-3.147-1.266-.808-.849-1.213-1.983-1.213-3.401v-.299c0-.943.179-1.784.537-2.522.363-.745.867-1.325 1.511-1.741a3.805 3.805 0 012.11-.633c1.236 0 2.197.408 2.883 1.222.685.815 1.028 1.981 1.028 3.498v.677h-6.443c.024.937.296 1.696.818 2.276.527.575 1.195.862 2.004.862.574 0 1.06-.118 1.459-.352a3.666 3.666 0 001.046-.932l.993.774c-.797 1.224-1.992 1.837-3.586 1.837zm-.202-8.526c-.657 0-1.207.241-1.653.721-.445.475-.72 1.143-.826 2.004h4.764v-.123c-.047-.826-.27-1.465-.668-1.916-.399-.457-.938-.686-1.617-.686zm10.397.299a4.879 4.879 0 00-.8-.061c-1.066 0-1.79.454-2.171 1.362V264h-1.626v-9.51h1.583l.026 1.099c.533-.85 1.289-1.275 2.267-1.275.317 0 .557.041.721.124v1.511zm7.04 5.529c0-.44-.167-.78-.501-1.02-.328-.246-.905-.457-1.731-.633-.821-.176-1.474-.387-1.96-.633-.481-.246-.838-.539-1.072-.879-.229-.339-.343-.744-.343-1.212 0-.78.328-1.439.984-1.978.662-.539 1.506-.809 2.531-.809 1.079 0 1.952.279 2.62.835.673.557 1.01 1.269 1.01 2.136h-1.634c0-.445-.191-.829-.572-1.151-.375-.322-.849-.484-1.424-.484-.591 0-1.054.129-1.388.387a1.218 1.218 0 00-.501 1.011c0 .392.155.688.466.888.31.199.87.389 1.678.571.815.181 1.474.398 1.978.65s.876.557 1.116.914c.246.352.369.783.369 1.292 0 .85-.34 1.533-1.019 2.048-.68.51-1.562.765-2.646.765-.762 0-1.435-.135-2.021-.405-.586-.269-1.046-.644-1.38-1.125a2.757 2.757 0 01-.492-1.573h1.626c.029.545.246.979.65 1.301.41.316.949.475 1.617.475.615 0 1.108-.123 1.477-.37.375-.251.562-.585.562-1.001z" fill="#000"/><rect x="545.5" y="206.5" width="192" height="101" rx="13.5" fill="#FFD7CB" stroke="#000"/><path d="M591.722 261.759l3.656-10.556h1.846L592.478 264h-1.495l-4.737-12.797h1.837l3.639 10.556zm10.529 2.417c-1.289 0-2.338-.422-3.147-1.266-.808-.849-1.212-1.983-1.212-3.401v-.299c0-.943.178-1.784.536-2.522.363-.745.867-1.325 1.511-1.741a3.805 3.805 0 012.11-.633c1.236 0 2.197.408 2.883 1.222.685.815 1.028 1.981 1.028 3.498v.677h-6.442c.023.937.295 1.696.817 2.276.527.575 1.195.862 2.004.862.574 0 1.06-.118 1.459-.352a3.666 3.666 0 001.046-.932l.993.774c-.797 1.224-1.992 1.837-3.586 1.837zm-.202-8.526c-.656 0-1.207.241-1.653.721-.445.475-.72 1.143-.826 2.004h4.764v-.123c-.047-.826-.27-1.465-.668-1.916-.398-.457-.937-.686-1.617-.686zm10.397.299a4.87 4.87 0 00-.8-.061c-1.066 0-1.79.454-2.17 1.362V264h-1.626v-9.51h1.582l.026 1.099c.533-.85 1.289-1.275 2.268-1.275.316 0 .556.041.72.124v1.511zm4.149-3.761v2.302h1.775v1.257h-1.775v5.898c0 .38.079.667.237.861.158.187.428.281.809.281.187 0 .445-.035.773-.105V264a4.725 4.725 0 01-1.248.176c-.727 0-1.274-.22-1.644-.659-.369-.44-.553-1.064-.553-1.872v-5.898h-1.732v-1.257h1.732v-2.302h1.626zm7.629 11.988c-1.289 0-2.338-.422-3.147-1.266-.808-.849-1.213-1.983-1.213-3.401v-.299c0-.943.179-1.784.536-2.522.364-.745.868-1.325 1.512-1.741a3.802 3.802 0 012.109-.633c1.237 0 2.198.408 2.883 1.222.686.815 1.029 1.981 1.029 3.498v.677h-6.443c.024.937.296 1.696.818 2.276.527.575 1.195.862 2.004.862.574 0 1.06-.118 1.459-.352a3.649 3.649 0 001.045-.932l.994.774c-.797 1.224-1.993 1.837-3.586 1.837zm-.203-8.526c-.656 0-1.207.241-1.652.721-.445.475-.721 1.143-.826 2.004h4.764v-.123c-.047-.826-.27-1.465-.668-1.916-.399-.457-.938-.686-1.618-.686zm8.992 2.312l2.109-3.472h1.899l-3.112 4.702 3.208 4.808h-1.881l-2.197-3.56-2.197 3.56h-1.89l3.208-4.808-3.111-4.702h1.881l2.083 3.472zm15.741 3.516c0-.44-.167-.78-.501-1.02-.328-.246-.905-.457-1.732-.633-.82-.176-1.473-.387-1.959-.633-.481-.246-.838-.539-1.073-.879-.228-.339-.343-.744-.343-1.212 0-.78.329-1.439.985-1.978.662-.539 1.506-.809 2.531-.809 1.078 0 1.951.279 2.619.835.674.557 1.011 1.269 1.011 2.136h-1.635c0-.445-.19-.829-.571-1.151-.375-.322-.85-.484-1.424-.484-.592 0-1.055.129-1.389.387a1.218 1.218 0 00-.501 1.011c0 .392.156.688.466.888.311.199.87.389 1.679.571.814.181 1.474.398 1.978.65.503.252.876.557 1.116.914.246.352.369.783.369 1.292 0 .85-.34 1.533-1.02 2.048-.679.51-1.561.765-2.645.765-.762 0-1.436-.135-2.022-.405-.586-.269-1.046-.644-1.38-1.125a2.757 2.757 0 01-.492-1.573h1.626c.03.545.246.979.651 1.301.41.316.949.475 1.617.475.615 0 1.107-.123 1.476-.37.375-.251.563-.585.563-1.001zm5.37-5.836c.721-.885 1.658-1.328 2.813-1.328 2.009 0 3.023 1.134 3.041 3.402V264h-1.626v-6.293c-.006-.686-.164-1.192-.475-1.52-.305-.329-.782-.493-1.433-.493-.527 0-.99.141-1.388.422a2.864 2.864 0 00-.932 1.108V264h-1.626v-13.5h1.626v5.142zM668.283 264c-.094-.188-.17-.521-.228-1.002-.756.785-1.659 1.178-2.707 1.178-.938 0-1.708-.264-2.312-.791-.598-.533-.896-1.207-.896-2.022 0-.99.375-1.758 1.125-2.302.756-.551 1.816-.827 3.181-.827h1.582v-.747c0-.568-.17-1.019-.509-1.353-.34-.34-.841-.51-1.503-.51-.58 0-1.067.147-1.459.439-.393.293-.589.648-.589 1.064h-1.635c0-.475.167-.932.501-1.371.34-.445.797-.797 1.371-1.055a4.64 4.64 0 011.907-.387c1.096 0 1.954.276 2.576.827.621.545.943 1.297.966 2.258v4.377c0 .873.112 1.568.334 2.083V264h-1.705zm-2.698-1.239c.51 0 .993-.132 1.45-.396.457-.263.788-.606.993-1.028v-1.951h-1.274c-1.992 0-2.988.583-2.988 1.749 0 .51.17.908.509 1.195.34.287.777.431 1.31.431zm6.223-3.595c0-1.459.345-2.631 1.037-3.516.691-.89 1.596-1.336 2.716-1.336 1.113 0 1.995.381 2.645 1.143V250.5h1.626V264h-1.494l-.079-1.02c-.651.797-1.556 1.196-2.716 1.196-1.102 0-2.001-.451-2.698-1.354-.692-.902-1.037-2.08-1.037-3.533v-.123zm1.626.185c0 1.078.222 1.921.668 2.531.445.609 1.06.914 1.845.914 1.032 0 1.784-.463 2.259-1.389v-4.368c-.486-.896-1.233-1.345-2.241-1.345-.797 0-1.418.308-1.863.923-.446.615-.668 1.527-.668 2.734zm12.876 4.825c-1.289 0-2.338-.422-3.147-1.266-.809-.849-1.213-1.983-1.213-3.401v-.299c0-.943.179-1.784.536-2.522.364-.745.868-1.325 1.512-1.741a3.802 3.802 0 012.109-.633c1.237 0 2.198.408 2.883 1.222.686.815 1.029 1.981 1.029 3.498v.677h-6.443c.024.937.296 1.696.818 2.276.527.575 1.195.862 2.003.862.575 0 1.061-.118 1.459-.352a3.64 3.64 0 001.046-.932l.994.774c-.797 1.224-1.993 1.837-3.586 1.837zm-.203-8.526c-.656 0-1.207.241-1.652.721-.445.475-.721 1.143-.826 2.004h4.764v-.123c-.047-.826-.27-1.465-.668-1.916-.399-.457-.938-.686-1.618-.686zm10.398.299a4.879 4.879 0 00-.8-.061c-1.066 0-1.79.454-2.171 1.362V264h-1.626v-9.51h1.582l.027 1.099c.533-.85 1.289-1.275 2.267-1.275.317 0 .557.041.721.124v1.511z" fill="#000"/><rect x="767.5" y="206.5" width="192" height="101" rx="13.5" fill="#FFD7CB" stroke="#000"/><path d="M817.179 258.823h-3.006V264h-1.696v-12.797h4.236c1.441 0 2.549.328 3.322.985.779.656 1.169 1.611 1.169 2.865 0 .797-.217 1.491-.65 2.083-.428.592-1.026 1.034-1.793 1.327l3.006 5.432V264h-1.811l-2.777-5.177zm-3.006-1.38h2.593c.838 0 1.503-.216 1.995-.65.498-.434.747-1.014.747-1.74 0-.791-.237-1.398-.712-1.82-.469-.421-1.149-.635-2.039-.641h-2.584v4.851zm15.02 6.557c-.093-.188-.17-.521-.228-1.002-.756.785-1.658 1.178-2.707 1.178-.938 0-1.708-.264-2.312-.791-.597-.533-.896-1.207-.896-2.022 0-.99.375-1.758 1.125-2.302.756-.551 1.816-.827 3.181-.827h1.582v-.747c0-.568-.169-1.019-.509-1.353-.34-.34-.841-.51-1.503-.51-.58 0-1.067.147-1.459.439-.393.293-.589.648-.589 1.064h-1.635c0-.475.167-.932.501-1.371.34-.445.797-.797 1.371-1.055a4.64 4.64 0 011.907-.387c1.096 0 1.955.276 2.576.827.621.545.943 1.297.966 2.258v4.377c0 .873.112 1.568.334 2.083V264h-1.705zm-2.698-1.239c.51 0 .993-.132 1.45-.396.457-.263.788-.606.993-1.028v-1.951h-1.274c-1.992 0-2.988.583-2.988 1.749 0 .51.17.908.51 1.195.339.287.776.431 1.309.431zm12.155-1.283c0-.44-.167-.78-.501-1.02-.328-.246-.905-.457-1.731-.633-.82-.176-1.474-.387-1.96-.633-.48-.246-.838-.539-1.072-.879-.229-.339-.343-.744-.343-1.212 0-.78.328-1.439.984-1.978.662-.539 1.506-.809 2.532-.809 1.078 0 1.951.279 2.619.835.674.557 1.01 1.269 1.01 2.136h-1.634c0-.445-.191-.829-.572-1.151-.375-.322-.849-.484-1.423-.484-.592 0-1.055.129-1.389.387a1.218 1.218 0 00-.501 1.011c0 .392.155.688.466.888.31.199.87.389 1.678.571.815.181 1.474.398 1.978.65s.876.557 1.116.914c.246.352.369.783.369 1.292 0 .85-.339 1.533-1.019 2.048-.68.51-1.562.765-2.646.765-.761 0-1.435-.135-2.021-.405-.586-.269-1.046-.644-1.38-1.125a2.757 2.757 0 01-.492-1.573h1.626c.029.545.246.979.65 1.301.41.316.949.475 1.617.475.616 0 1.108-.123 1.477-.37.375-.251.562-.585.562-1.001zm5.951-9.29v2.302h1.775v1.257h-1.775v5.898c0 .38.079.667.237.861.158.187.428.281.808.281.188 0 .446-.035.774-.105V264a4.725 4.725 0 01-1.248.176c-.727 0-1.275-.22-1.644-.659-.369-.44-.553-1.064-.553-1.872v-5.898h-1.732v-1.257h1.732v-2.302h1.626zm7.628 11.988c-1.289 0-2.337-.422-3.146-1.266-.809-.849-1.213-1.983-1.213-3.401v-.299c0-.943.179-1.784.536-2.522.364-.745.867-1.325 1.512-1.741a3.8 3.8 0 012.109-.633c1.237 0 2.198.408 2.883 1.222.686.815 1.028 1.981 1.028 3.498v.677h-6.442c.024.937.296 1.696.817 2.276.528.575 1.196.862 2.004.862.575 0 1.061-.118 1.459-.352a3.653 3.653 0 001.046-.932l.993.774c-.796 1.224-1.992 1.837-3.586 1.837zm-.202-8.526c-.656 0-1.207.241-1.652.721-.445.475-.721 1.143-.826 2.004h4.763v-.123c-.046-.826-.269-1.465-.667-1.916-.399-.457-.938-.686-1.618-.686zm10.398.299a4.879 4.879 0 00-.8-.061c-1.066 0-1.79.454-2.171 1.362V264h-1.626v-9.51h1.582l.027 1.099c.533-.85 1.289-1.275 2.267-1.275.317 0 .557.041.721.124v1.511zm3.269 8.051h-1.626v-9.51h1.626V264zm-1.757-12.032a.98.98 0 01.237-.668c.164-.182.404-.273.721-.273.316 0 .556.091.72.273a.959.959 0 01.246.668.93.93 0 01-.246.659c-.164.176-.404.264-.72.264-.317 0-.557-.088-.721-.264a.95.95 0 01-.237-.659zm5.897 10.705h5.563V264h-7.549v-1.195l5.247-6.97h-5.168v-1.345h7.207v1.152l-5.3 7.031zM883.105 264c-.093-.188-.169-.521-.228-1.002-.756.785-1.658 1.178-2.707 1.178-.938 0-1.708-.264-2.312-.791-.597-.533-.896-1.207-.896-2.022 0-.99.375-1.758 1.125-2.302.756-.551 1.816-.827 3.182-.827h1.582v-.747c0-.568-.17-1.019-.51-1.353-.34-.34-.841-.51-1.503-.51-.58 0-1.067.147-1.459.439-.393.293-.589.648-.589 1.064h-1.635c0-.475.167-.932.501-1.371.34-.445.797-.797 1.371-1.055a4.642 4.642 0 011.908-.387c1.095 0 1.954.276 2.575.827.621.545.943 1.297.967 2.258v4.377c0 .873.111 1.568.334 2.083V264h-1.706zm-2.698-1.239c.51 0 .993-.132 1.45-.396.457-.263.789-.606.994-1.028v-1.951h-1.275c-1.992 0-2.988.583-2.988 1.749 0 .51.17.908.51 1.195.34.287.776.431 1.309.431zm8.824-10.573v2.302h1.776v1.257h-1.776v5.898c0 .38.08.667.238.861.158.187.427.281.808.281.188 0 .446-.035.774-.105V264a4.725 4.725 0 01-1.248.176c-.727 0-1.275-.22-1.644-.659-.369-.44-.554-1.064-.554-1.872v-5.898h-1.731v-1.257h1.731v-2.302h1.626zm5.45 11.812h-1.626v-9.51h1.626V264zm-1.758-12.032a.98.98 0 01.237-.668c.164-.182.404-.273.721-.273.316 0 .557.091.721.273a.959.959 0 01.246.668.93.93 0 01-.246.659c-.164.176-.405.264-.721.264-.317 0-.557-.088-.721-.264a.95.95 0 01-.237-.659zm3.937 7.189c0-.931.182-1.769.545-2.513.369-.745.879-1.319 1.53-1.723.656-.404 1.403-.607 2.241-.607 1.295 0 2.341.449 3.137 1.345.803.897 1.205 2.089 1.205 3.577v.115c0 .925-.179 1.757-.537 2.496a4.008 4.008 0 01-1.52 1.714c-.656.41-1.412.615-2.268.615-1.289 0-2.335-.448-3.137-1.345-.797-.896-1.196-2.083-1.196-3.56v-.114zm1.635.194c0 1.054.243 1.901.73 2.54.492.638 1.148.958 1.968.958.827 0 1.483-.323 1.969-.967.486-.651.73-1.559.73-2.725 0-1.043-.249-1.886-.747-2.531-.493-.65-1.149-.976-1.969-.976-.803 0-1.45.32-1.943.958-.492.639-.738 1.553-.738 2.743zm10.6-4.861l.052 1.196c.727-.915 1.676-1.372 2.848-1.372 2.01 0 3.024 1.134 3.041 3.402V264h-1.626v-6.293c-.006-.686-.164-1.192-.474-1.52-.305-.329-.783-.493-1.433-.493-.527 0-.99.141-1.389.422a2.862 2.862 0 00-.931 1.108V264h-1.626v-9.51h1.538z" fill="#000"/><rect x="989.5" y="206.5" width="192" height="101" rx="13.5" fill="#FFD7CB" stroke="#000"/><path d="M1026.54 258.349h-5.37V264h-1.68v-12.797h7.92v1.389h-6.24v4.377h5.37v1.38zm7.01-2.4a4.888 4.888 0 00-.8-.061c-1.07 0-1.79.454-2.17 1.362V264h-1.63v-9.51h1.58l.03 1.099c.53-.85 1.29-1.275 2.27-1.275.31 0 .55.041.72.124v1.511zm7.02 8.051c-.09-.188-.17-.521-.23-1.002-.75.785-1.66 1.178-2.71 1.178-.93 0-1.7-.264-2.31-.791-.59-.533-.89-1.207-.89-2.022 0-.99.37-1.758 1.12-2.302.76-.551 1.82-.827 3.18-.827h1.59v-.747c0-.568-.17-1.019-.51-1.353-.34-.34-.85-.51-1.51-.51-.58 0-1.06.147-1.46.439-.39.293-.59.648-.59 1.064h-1.63c0-.475.17-.932.5-1.371.34-.445.8-.797 1.37-1.055a4.658 4.658 0 011.91-.387c1.1 0 1.95.276 2.57.827.63.545.95 1.297.97 2.258v4.377c0 .873.11 1.568.34 2.083V264h-1.71zm-2.7-1.239c.51 0 1-.132 1.45-.396.46-.263.79-.606 1-1.028v-1.951h-1.28c-1.99 0-2.99.583-2.99 1.749 0 .51.17.908.51 1.195.34.287.78.431 1.31.431zm6.23-3.595c0-1.482.35-2.66 1.03-3.533.69-.879 1.6-1.319 2.73-1.319 1.16 0 2.06.411 2.71 1.231l.08-1.055h1.49v9.281c0 1.231-.37 2.201-1.1 2.91-.73.709-1.71 1.063-2.94 1.063a4.91 4.91 0 01-2.01-.439c-.66-.293-1.16-.695-1.5-1.204l.84-.976c.7.861 1.55 1.292 2.56 1.292.79 0 1.4-.223 1.84-.668.45-.445.67-1.072.67-1.881v-.817c-.65.75-1.54 1.125-2.66 1.125-1.11 0-2.02-.448-2.71-1.345-.68-.896-1.03-2.118-1.03-3.665zm1.64.185c0 1.072.22 1.916.66 2.531.44.609 1.05.914 1.84.914 1.03 0 1.78-.466 2.26-1.398v-4.341c-.5-.909-1.24-1.363-2.24-1.363-.79 0-1.41.308-1.85.923-.45.615-.67 1.527-.67 2.734zm10.39-4.861l.04 1.055c.7-.82 1.64-1.231 2.82-1.231 1.33 0 2.24.51 2.72 1.53a3.51 3.51 0 011.23-1.108c.51-.281 1.11-.422 1.8-.422 2.09 0 3.15 1.105 3.18 3.314V264h-1.62v-6.275c0-.68-.16-1.187-.47-1.521-.31-.34-.83-.51-1.56-.51-.61 0-1.11.182-1.51.545-.4.358-.63.841-.69 1.45V264h-1.64v-6.231c0-1.383-.67-2.075-2.03-2.075-1.06 0-1.79.454-2.19 1.363V264h-1.62v-9.51h1.54zm18.2 9.686c-1.29 0-2.34-.422-3.15-1.266-.81-.849-1.21-1.983-1.21-3.401v-.299c0-.943.18-1.784.54-2.522.36-.745.86-1.325 1.51-1.741a3.793 3.793 0 012.11-.633c1.23 0 2.19.408 2.88 1.222.69.815 1.03 1.981 1.03 3.498v.677h-6.44c.02.937.29 1.696.81 2.276.53.575 1.2.862 2.01.862.57 0 1.06-.118 1.46-.352.39-.234.74-.545 1.04-.932l1 .774c-.8 1.224-2 1.837-3.59 1.837zm-.2-8.526c-.66 0-1.21.241-1.66.721-.44.475-.72 1.143-.82 2.004h4.76v-.123c-.04-.826-.27-1.465-.67-1.916-.39-.457-.93-.686-1.61-.686zm7.34-1.16l.05 1.196c.73-.915 1.67-1.372 2.85-1.372 2.01 0 3.02 1.134 3.04 3.402V264h-1.63v-6.293c0-.686-.16-1.192-.47-1.52-.31-.329-.79-.493-1.44-.493-.52 0-.99.141-1.38.422-.4.281-.71.651-.94 1.108V264h-1.62v-9.51h1.54zm10.6-2.302v2.302h1.77v1.257h-1.77v5.898c0 .38.07.667.23.861.16.187.43.281.81.281.19 0 .45-.035.77-.105V264c-.42.117-.84.176-1.24.176-.73 0-1.28-.22-1.65-.659-.37-.44-.55-1.064-.55-1.872v-5.898h-1.73v-1.257h1.73v-2.302h1.63zm13.68 9.29c0-.44-.17-.78-.5-1.02-.33-.246-.91-.457-1.73-.633s-1.48-.387-1.96-.633-.84-.539-1.07-.879c-.23-.339-.35-.744-.35-1.212 0-.78.33-1.439.99-1.978.66-.539 1.5-.809 2.53-.809 1.08 0 1.95.279 2.62.835.67.557 1.01 1.269 1.01 2.136h-1.64c0-.445-.19-.829-.57-1.151-.37-.322-.85-.484-1.42-.484-.59 0-1.06.129-1.39.387-.33.258-.5.595-.5 1.011 0 .392.15.688.46.888.31.199.87.389 1.68.571.82.181 1.48.398 1.98.65s.88.557 1.12.914c.24.352.37.783.37 1.292 0 .85-.34 1.533-1.02 2.048-.68.51-1.57.765-2.65.765-.76 0-1.43-.135-2.02-.405-.59-.269-1.05-.644-1.38-1.125a2.74 2.74 0 01-.49-1.573h1.62c.03.545.25.979.65 1.301.41.316.95.475 1.62.475.62 0 1.11-.123 1.48-.37.37-.251.56-.585.56-1.001zm5.37-5.836c.72-.885 1.66-1.328 2.81-1.328 2.01 0 3.03 1.134 3.04 3.402V264h-1.62v-6.293c-.01-.686-.17-1.192-.48-1.52-.3-.329-.78-.493-1.43-.493-.53 0-.99.141-1.39.422-.4.281-.71.651-.93 1.108V264h-1.63v-13.5h1.63v5.142zm14.16 8.358c-.09-.188-.17-.521-.23-1.002-.76.785-1.66 1.178-2.71 1.178-.93 0-1.7-.264-2.31-.791-.6-.533-.89-1.207-.89-2.022 0-.99.37-1.758 1.12-2.302.76-.551 1.82-.827 3.18-.827h1.58v-.747c0-.568-.17-1.019-.51-1.353-.34-.34-.84-.51-1.5-.51-.58 0-1.06.147-1.46.439-.39.293-.59.648-.59 1.064h-1.63c0-.475.17-.932.5-1.371.34-.445.8-.797 1.37-1.055a4.658 4.658 0 011.91-.387c1.09 0 1.95.276 2.57.827.62.545.95 1.297.97 2.258v4.377c0 .873.11 1.568.33 2.083V264h-1.7zm-2.7-1.239c.51 0 .99-.132 1.45-.396.46-.263.79-.606.99-1.028v-1.951h-1.27c-1.99 0-2.99.583-2.99 1.749 0 .51.17.908.51 1.195.34.287.78.431 1.31.431zm6.22-3.595c0-1.459.35-2.631 1.04-3.516.69-.89 1.6-1.336 2.72-1.336 1.11 0 1.99.381 2.64 1.143V250.5h1.63V264h-1.5l-.08-1.02c-.65.797-1.55 1.196-2.71 1.196-1.1 0-2-.451-2.7-1.354-.69-.902-1.04-2.08-1.04-3.533v-.123zm1.63.185c0 1.078.22 1.921.67 2.531.44.609 1.06.914 1.84.914 1.03 0 1.79-.463 2.26-1.389v-4.368c-.48-.896-1.23-1.345-2.24-1.345-.8 0-1.42.308-1.86.923-.45.615-.67 1.527-.67 2.734zm12.88 4.825c-1.29 0-2.34-.422-3.15-1.266-.81-.849-1.21-1.983-1.21-3.401v-.299c0-.943.17-1.784.53-2.522.37-.745.87-1.325 1.51-1.741a3.817 3.817 0 012.11-.633c1.24 0 2.2.408 2.89 1.222.68.815 1.02 1.981 1.02 3.498v.677h-6.44c.03.937.3 1.696.82 2.276.53.575 1.19.862 2 .862.58 0 1.06-.118 1.46-.352.4-.234.75-.545 1.05-.932l.99.774c-.8 1.224-1.99 1.837-3.58 1.837zm-.21-8.526c-.65 0-1.2.241-1.65.721-.44.475-.72 1.143-.83 2.004h4.77v-.123c-.05-.826-.27-1.465-.67-1.916-.4-.457-.94-.686-1.62-.686zm10.4.299a4.888 4.888 0 00-.8-.061c-1.07 0-1.79.454-2.17 1.362V264h-1.63v-9.51h1.59l.02 1.099c.54-.85 1.29-1.275 2.27-1.275.32 0 .56.041.72.124v1.511zM149.552 376.66h-5.362l-1.204 3.34h-1.74l4.887-12.797h1.476L152.505 380h-1.732l-1.221-3.34zm-4.852-1.389h4.351l-2.18-5.985-2.171 5.985zm13.869-3.322a4.867 4.867 0 00-.799-.061c-1.067 0-1.791.454-2.171 1.362V380h-1.626v-9.51h1.582l.026 1.099c.533-.85 1.289-1.275 2.268-1.275.316 0 .556.041.72.124v1.511zm6.1 0a4.879 4.879 0 00-.8-.061c-1.066 0-1.79.454-2.171 1.362V380h-1.626v-9.51h1.582l.027 1.099c.533-.85 1.289-1.275 2.267-1.275.317 0 .557.041.721.124v1.511zm7.022 8.051c-.093-.188-.17-.521-.228-1.002-.756.785-1.658 1.178-2.707 1.178-.938 0-1.708-.264-2.312-.791-.597-.533-.896-1.207-.896-2.022 0-.99.375-1.758 1.125-2.302.756-.551 1.816-.827 3.181-.827h1.583v-.747c0-.568-.17-1.019-.51-1.353-.34-.34-.841-.51-1.503-.51-.58 0-1.067.147-1.459.439-.393.293-.589.648-.589 1.064h-1.635c0-.475.167-.932.501-1.371.34-.445.797-.797 1.371-1.055a4.642 4.642 0 011.908-.387c1.095 0 1.954.276 2.575.827.621.545.943 1.297.966 2.258v4.377c0 .873.112 1.568.334 2.083V380h-1.705zm-2.698-1.239c.51 0 .993-.132 1.45-.396.457-.263.788-.606.994-1.028v-1.951h-1.275c-1.992 0-2.988.583-2.988 1.749 0 .51.17.908.51 1.195.339.287.776.431 1.309.431zm9.589-1.143l2.215-7.128h1.74l-3.823 10.978c-.592 1.582-1.532 2.373-2.821 2.373l-.308-.027-.606-.114v-1.318l.439.035c.551 0 .978-.111 1.283-.334.311-.223.566-.63.765-1.222l.36-.966-3.392-9.405h1.775l2.373 7.128zm9.448-2.461c0-.931.182-1.769.545-2.513.369-.745.879-1.319 1.529-1.723.657-.404 1.404-.607 2.242-.607 1.295 0 2.341.449 3.137 1.345.803.897 1.205 2.089 1.205 3.577v.115c0 .925-.179 1.757-.537 2.496a4.008 4.008 0 01-1.52 1.714c-.656.41-1.412.615-2.268.615-1.289 0-2.335-.448-3.137-1.345-.797-.896-1.196-2.083-1.196-3.56v-.114zm1.635.194c0 1.054.243 1.901.73 2.54.492.638 1.148.958 1.968.958.826 0 1.483-.323 1.969-.967.486-.651.73-1.559.73-2.725 0-1.043-.25-1.886-.748-2.531-.492-.65-1.148-.976-1.968-.976-.803 0-1.45.32-1.943.958-.492.639-.738 1.553-.738 2.743zm9.861 4.649v-8.253h-1.503v-1.257h1.503v-.975c0-1.02.273-1.808.818-2.365.545-.556 1.315-.835 2.311-.835.375 0 .747.05 1.116.15l-.087 1.318a4.658 4.658 0 00-.879-.079c-.528 0-.935.155-1.222.466-.287.305-.431.744-.431 1.318v1.002h2.031v1.257h-2.031V380h-1.626zm10.723 0v-8.253h-1.503v-1.257h1.503v-.975c0-1.02.272-1.808.817-2.365.545-.556 1.316-.835 2.312-.835.375 0 .747.05 1.116.15l-.088 1.318a4.643 4.643 0 00-.879-.079c-.527 0-.934.155-1.221.466-.287.305-.431.744-.431 1.318v1.002h2.03v1.257h-2.03V380h-1.626zm11.329 0c-.094-.188-.17-.521-.228-1.002-.756.785-1.659 1.178-2.707 1.178-.938 0-1.708-.264-2.312-.791-.598-.533-.896-1.207-.896-2.022 0-.99.375-1.758 1.125-2.302.755-.551 1.816-.827 3.181-.827h1.582v-.747c0-.568-.17-1.019-.51-1.353-.339-.34-.84-.51-1.502-.51-.581 0-1.067.147-1.459.439-.393.293-.589.648-.589 1.064h-1.635c0-.475.167-.932.501-1.371.34-.445.797-.797 1.371-1.055a4.64 4.64 0 011.907-.387c1.096 0 1.954.276 2.575.827.622.545.944 1.297.967 2.258v4.377c0 .873.112 1.568.334 2.083V380h-1.705zm-2.698-1.239c.51 0 .993-.132 1.45-.396.457-.263.788-.606.993-1.028v-1.951h-1.274c-1.992 0-2.988.583-2.988 1.749 0 .51.169.908.509 1.195.34.287.777.431 1.31.431zm10.432.088a2.34 2.34 0 001.521-.528c.434-.351.674-.791.721-1.318h1.538c-.03.545-.217 1.063-.563 1.556a3.69 3.69 0 01-1.388 1.177 3.972 3.972 0 01-1.829.44c-1.294 0-2.326-.431-3.093-1.292-.762-.867-1.143-2.051-1.143-3.551v-.272c0-.926.17-1.749.51-2.47.34-.721.826-1.28 1.459-1.679.639-.398 1.392-.598 2.259-.598 1.066 0 1.951.32 2.654.958.709.639 1.087 1.468 1.134 2.488h-1.538c-.047-.615-.282-1.119-.703-1.512-.416-.398-.932-.598-1.547-.598-.826 0-1.468.299-1.925.897-.451.592-.677 1.45-.677 2.575v.308c0 1.095.226 1.939.677 2.531.451.592 1.096.888 1.933.888zm9.554 1.327c-1.289 0-2.338-.422-3.146-1.266-.809-.849-1.213-1.983-1.213-3.401v-.299c0-.943.179-1.784.536-2.522.363-.745.867-1.325 1.512-1.741a3.8 3.8 0 012.109-.633c1.236 0 2.197.408 2.883 1.222.685.815 1.028 1.981 1.028 3.498v.677h-6.442c.023.937.296 1.696.817 2.276.528.575 1.196.862 2.004.862.574 0 1.061-.118 1.459-.352a3.653 3.653 0 001.046-.932l.993.774c-.797 1.224-1.992 1.837-3.586 1.837zm-.202-8.526c-.656 0-1.207.241-1.652.721-.446.475-.721 1.143-.826 2.004h4.763v-.123c-.047-.826-.269-1.465-.668-1.916-.398-.457-.937-.686-1.617-.686zm11.338 5.828c0-.44-.167-.78-.501-1.02-.328-.246-.905-.457-1.731-.633-.821-.176-1.474-.387-1.96-.633-.481-.246-.838-.539-1.073-.879-.228-.339-.342-.744-.342-1.212 0-.78.328-1.439.984-1.978.662-.539 1.506-.809 2.531-.809 1.078 0 1.951.279 2.619.835.674.557 1.011 1.269 1.011 2.136h-1.635c0-.445-.19-.829-.571-1.151-.375-.322-.85-.484-1.424-.484-.592 0-1.055.129-1.389.387a1.22 1.22 0 00-.5 1.011c0 .392.155.688.465.888.311.199.87.389 1.679.571.814.181 1.474.398 1.978.65.503.252.876.557 1.116.914.246.352.369.783.369 1.292 0 .85-.34 1.533-1.02 2.048-.679.51-1.561.765-2.645.765-.762 0-1.436-.135-2.022-.405-.586-.269-1.045-.644-1.379-1.125a2.75 2.75 0 01-.493-1.573h1.626c.03.545.246.979.651 1.301.41.316.949.475 1.617.475.615 0 1.107-.123 1.476-.37.375-.251.563-.585.563-1.001zM129.045 262.849c.58 0 1.087-.176 1.52-.528.434-.351.674-.791.721-1.318h1.538c-.029.545-.217 1.063-.562 1.556a3.7 3.7 0 01-1.389 1.177 3.968 3.968 0 01-1.828.44c-1.295 0-2.326-.431-3.094-1.292-.762-.867-1.142-2.051-1.142-3.551v-.272c0-.926.17-1.749.509-2.47.34-.721.827-1.28 1.459-1.679.639-.398 1.392-.598 2.259-.598 1.067 0 1.951.32 2.654.958.709.639 1.087 1.468 1.134 2.488h-1.538c-.047-.615-.281-1.119-.703-1.512-.416-.398-.932-.598-1.547-.598-.826 0-1.468.299-1.925.897-.451.592-.676 1.45-.676 2.575v.308c0 1.095.225 1.939.676 2.531.451.592 1.096.888 1.934.888zm11.478.211c-.632.744-1.561 1.116-2.786 1.116-1.013 0-1.787-.293-2.32-.879-.527-.592-.794-1.465-.8-2.619v-6.188h1.626v6.144c0 1.441.586 2.162 1.758 2.162 1.242 0 2.068-.463 2.478-1.389v-6.917h1.626V264h-1.546l-.036-.94zm9.598-1.582c0-.44-.167-.78-.501-1.02-.328-.246-.905-.457-1.731-.633-.821-.176-1.474-.387-1.96-.633-.481-.246-.838-.539-1.073-.879-.228-.339-.342-.744-.342-1.212 0-.78.328-1.439.984-1.978.662-.539 1.506-.809 2.531-.809 1.078 0 1.951.279 2.619.835.674.557 1.011 1.269 1.011 2.136h-1.635c0-.445-.19-.829-.571-1.151-.375-.322-.849-.484-1.424-.484-.591 0-1.054.129-1.388.387a1.218 1.218 0 00-.501 1.011c0 .392.155.688.465.888.311.199.871.389 1.679.571.815.181 1.474.398 1.978.65s.876.557 1.116.914c.246.352.369.783.369 1.292 0 .85-.34 1.533-1.019 2.048-.68.51-1.562.765-2.646.765-.762 0-1.436-.135-2.021-.405-.586-.269-1.046-.644-1.38-1.125a2.758 2.758 0 01-.493-1.573h1.626c.03.545.247.979.651 1.301.41.316.949.475 1.617.475.615 0 1.107-.123 1.477-.37.375-.251.562-.585.562-1.001zm5.95-9.29v2.302h1.776v1.257h-1.776v5.898c0 .38.079.667.238.861.158.187.427.281.808.281.188 0 .445-.035.774-.105V264a4.725 4.725 0 01-1.248.176c-.727 0-1.275-.22-1.644-.659-.369-.44-.554-1.064-.554-1.872v-5.898h-1.731v-1.257h1.731v-2.302h1.626zm3.076 6.969c0-.931.182-1.769.545-2.513.37-.745.879-1.319 1.53-1.723.656-.404 1.403-.607 2.241-.607 1.295 0 2.341.449 3.138 1.345.802.897 1.204 2.089 1.204 3.577v.115c0 .925-.179 1.757-.536 2.496a4.017 4.017 0 01-1.521 1.714c-.656.41-1.412.615-2.268.615-1.289 0-2.334-.448-3.137-1.345-.797-.896-1.196-2.083-1.196-3.56v-.114zm1.635.194c0 1.054.243 1.901.73 2.54.492.638 1.148.958 1.968.958.827 0 1.483-.323 1.969-.967.487-.651.73-1.559.73-2.725 0-1.043-.249-1.886-.747-2.531-.493-.65-1.149-.976-1.969-.976-.803 0-1.45.32-1.942.958-.493.639-.739 1.553-.739 2.743zm10.591-4.861l.044 1.055c.697-.82 1.638-1.231 2.821-1.231 1.33 0 2.236.51 2.716 1.53a3.63 3.63 0 011.231-1.108c.509-.281 1.11-.422 1.801-.422 2.086 0 3.147 1.105 3.182 3.314V264h-1.626v-6.275c0-.68-.155-1.187-.466-1.521-.31-.34-.832-.51-1.564-.51-.604 0-1.105.182-1.503.545-.399.358-.63.841-.695 1.45V264h-1.634v-6.231c0-1.383-.677-2.075-2.031-2.075-1.066 0-1.795.454-2.188 1.363V264h-1.626v-9.51h1.538zm26.754 4.861c0 1.447-.331 2.613-.993 3.498-.662.884-1.559 1.327-2.69 1.327-1.154 0-2.062-.366-2.724-1.099v4.579h-1.626V254.49h1.485l.079 1.055c.662-.82 1.582-1.231 2.76-1.231 1.143 0 2.045.431 2.707 1.292.668.862 1.002 2.06 1.002 3.595v.15zm-1.626-.185c0-1.072-.229-1.919-.686-2.54-.457-.621-1.084-.932-1.88-.932-.985 0-1.723.437-2.215 1.31v4.544c.486.867 1.23 1.301 2.232 1.301.779 0 1.398-.308 1.855-.923.463-.621.694-1.541.694-2.76zm8.297-3.217a4.879 4.879 0 00-.8-.061c-1.066 0-1.79.454-2.171 1.362V264h-1.626v-9.51h1.582l.027 1.099c.533-.85 1.289-1.275 2.267-1.275.317 0 .557.041.721.124v1.511zm.896 3.208c0-.931.182-1.769.545-2.513.369-.745.879-1.319 1.53-1.723.656-.404 1.403-.607 2.241-.607 1.295 0 2.341.449 3.137 1.345.803.897 1.205 2.089 1.205 3.577v.115c0 .925-.179 1.757-.537 2.496a4.008 4.008 0 01-1.52 1.714c-.656.41-1.412.615-2.268.615-1.289 0-2.335-.448-3.137-1.345-.797-.896-1.196-2.083-1.196-3.56v-.114zm1.635.194c0 1.054.243 1.901.73 2.54.492.638 1.148.958 1.968.958.827 0 1.483-.323 1.969-.967.486-.651.73-1.559.73-2.725 0-1.043-.249-1.886-.747-2.531-.493-.65-1.149-.976-1.969-.976-.803 0-1.45.32-1.943.958-.492.639-.738 1.553-.738 2.743zm17.095 0c0 1.447-.331 2.613-.993 3.498-.662.884-1.559 1.327-2.69 1.327-1.154 0-2.062-.366-2.724-1.099v4.579h-1.626V254.49h1.485l.079 1.055c.662-.82 1.582-1.231 2.76-1.231 1.142 0 2.045.431 2.707 1.292.668.862 1.002 2.06 1.002 3.595v.15zm-1.626-.185c0-1.072-.229-1.919-.686-2.54-.457-.621-1.084-.932-1.881-.932-.984 0-1.722.437-2.214 1.31v4.544c.486.867 1.23 1.301 2.232 1.301.779 0 1.397-.308 1.855-.923.462-.621.694-1.541.694-2.76zm7.646 5.01c-1.289 0-2.338-.422-3.146-1.266-.809-.849-1.213-1.983-1.213-3.401v-.299c0-.943.179-1.784.536-2.522.363-.745.867-1.325 1.512-1.741a3.8 3.8 0 012.109-.633c1.237 0 2.197.408 2.883 1.222.686.815 1.028 1.981 1.028 3.498v.677h-6.442c.023.937.296 1.696.817 2.276.528.575 1.196.862 2.004.862.574 0 1.061-.118 1.459-.352a3.653 3.653 0 001.046-.932l.993.774c-.797 1.224-1.992 1.837-3.586 1.837zm-.202-8.526c-.656 0-1.207.241-1.652.721-.445.475-.721 1.143-.826 2.004h4.763v-.123c-.047-.826-.269-1.465-.668-1.916-.398-.457-.937-.686-1.617-.686zm10.398.299a4.879 4.879 0 00-.8-.061c-1.067 0-1.79.454-2.171 1.362V264h-1.626v-9.51h1.582l.026 1.099c.534-.85 1.289-1.275 2.268-1.275.316 0 .557.041.721.124v1.511zm4.148-3.761v2.302h1.775v1.257h-1.775v5.898c0 .38.079.667.237.861.159.187.428.281.809.281.187 0 .445-.035.773-.105V264a4.714 4.714 0 01-1.248.176c-.726 0-1.274-.22-1.643-.659-.369-.44-.554-1.064-.554-1.872v-5.898h-1.731v-1.257h1.731v-2.302h1.626zM250.237 264h-1.626v-9.51h1.626V264zm-1.758-12.032c0-.264.08-.487.238-.668.164-.182.404-.273.721-.273.316 0 .556.091.72.273a.959.959 0 01.246.668.93.93 0 01-.246.659c-.164.176-.404.264-.72.264-.317 0-.557-.088-.721-.264a.951.951 0 01-.238-.659zm8.315 12.208c-1.289 0-2.338-.422-3.147-1.266-.808-.849-1.212-1.983-1.212-3.401v-.299c0-.943.178-1.784.536-2.522.363-.745.867-1.325 1.511-1.741a3.805 3.805 0 012.11-.633c1.236 0 2.197.408 2.883 1.222.685.815 1.028 1.981 1.028 3.498v.677h-6.442c.023.937.295 1.696.817 2.276.527.575 1.195.862 2.004.862.574 0 1.06-.118 1.459-.352a3.666 3.666 0 001.046-.932l.993.774c-.797 1.224-1.992 1.837-3.586 1.837zm-.202-8.526c-.656 0-1.207.241-1.653.721-.445.475-.72 1.143-.826 2.004h4.764v-.123c-.047-.826-.27-1.465-.668-1.916-.398-.457-.938-.686-1.617-.686zm11.338 5.828c0-.44-.167-.78-.501-1.02-.328-.246-.906-.457-1.732-.633-.82-.176-1.473-.387-1.96-.633-.48-.246-.838-.539-1.072-.879-.228-.339-.343-.744-.343-1.212 0-.78.328-1.439.985-1.978.662-.539 1.505-.809 2.531-.809 1.078 0 1.951.279 2.619.835.674.557 1.011 1.269 1.011 2.136h-1.635c0-.445-.19-.829-.571-1.151-.375-.322-.85-.484-1.424-.484-.592 0-1.055.129-1.389.387a1.218 1.218 0 00-.501 1.011c0 .392.156.688.466.888.311.199.87.389 1.679.571.814.181 1.473.398 1.977.65s.876.557 1.117.914c.246.352.369.783.369 1.292 0 .85-.34 1.533-1.02 2.048-.68.51-1.561.765-2.645.765-.762 0-1.436-.135-2.022-.405-.586-.269-1.046-.644-1.38-1.125a2.757 2.757 0 01-.492-1.573h1.626c.029.545.246.979.65 1.301.411.316.95.475 1.618.475.615 0 1.107-.123 1.476-.37.375-.251.563-.585.563-1.001zM139.552 143.66h-5.362l-1.204 3.34h-1.74l4.887-12.797h1.476L142.505 147h-1.732l-1.221-3.34zm-4.852-1.389h4.351l-2.18-5.985-2.171 5.985zm13.869-3.322a4.867 4.867 0 00-.799-.061c-1.067 0-1.791.454-2.171 1.362V147h-1.626v-9.51h1.582l.026 1.099c.533-.85 1.289-1.275 2.268-1.275.316 0 .556.041.72.124v1.511zm6.1 0a4.879 4.879 0 00-.8-.061c-1.066 0-1.79.454-2.171 1.362V147h-1.626v-9.51h1.582l.027 1.099c.533-.85 1.289-1.275 2.267-1.275.317 0 .557.041.721.124v1.511zm7.022 8.051c-.093-.188-.17-.521-.228-1.002-.756.785-1.658 1.178-2.707 1.178-.938 0-1.708-.264-2.312-.791-.597-.533-.896-1.207-.896-2.022 0-.99.375-1.758 1.125-2.302.756-.551 1.816-.827 3.181-.827h1.583v-.747c0-.568-.17-1.019-.51-1.353-.34-.34-.841-.51-1.503-.51-.58 0-1.067.147-1.459.439-.393.293-.589.648-.589 1.064h-1.635c0-.475.167-.932.501-1.371.34-.445.797-.797 1.371-1.055a4.642 4.642 0 011.908-.387c1.095 0 1.954.276 2.575.827.621.545.943 1.297.966 2.258v4.377c0 .873.112 1.568.334 2.083V147h-1.705zm-2.698-1.239c.51 0 .993-.132 1.45-.396.457-.263.788-.606.994-1.028v-1.951h-1.275c-1.992 0-2.988.583-2.988 1.749 0 .51.17.908.51 1.195.339.287.776.431 1.309.431zm9.589-1.143l2.215-7.128h1.74l-3.823 10.978c-.592 1.582-1.532 2.373-2.821 2.373l-.308-.027-.606-.114v-1.318l.439.035c.551 0 .978-.111 1.283-.334.311-.223.566-.63.765-1.222l.36-.966-3.392-9.405h1.775l2.373 7.128zm9.448-2.461c0-.931.182-1.769.545-2.513.369-.745.879-1.319 1.529-1.723.657-.404 1.404-.607 2.242-.607 1.295 0 2.341.449 3.137 1.345.803.897 1.205 2.089 1.205 3.577v.115c0 .925-.179 1.757-.537 2.496a4.008 4.008 0 01-1.52 1.714c-.656.41-1.412.615-2.268.615-1.289 0-2.335-.448-3.137-1.345-.797-.896-1.196-2.083-1.196-3.56v-.114zm1.635.194c0 1.054.243 1.901.73 2.54.492.638 1.148.958 1.968.958.826 0 1.483-.323 1.969-.967.486-.651.73-1.559.73-2.725 0-1.043-.25-1.886-.748-2.531-.492-.65-1.148-.976-1.968-.976-.803 0-1.45.32-1.943.958-.492.639-.738 1.553-.738 2.743zm9.861 4.649v-8.253h-1.503v-1.257h1.503v-.975c0-1.02.273-1.808.818-2.365.545-.556 1.315-.835 2.311-.835.375 0 .747.05 1.116.15l-.087 1.318a4.658 4.658 0 00-.879-.079c-.528 0-.935.155-1.222.466-.287.305-.431.744-.431 1.318v1.002h2.031v1.257h-2.031V147h-1.626zm14.414-2.241l3.657-10.556h1.845L204.696 147h-1.494l-4.737-12.797h1.837l3.638 10.556zm10.53 2.417c-1.289 0-2.338-.422-3.147-1.266-.808-.849-1.213-1.983-1.213-3.401v-.299c0-.943.179-1.784.536-2.522.364-.745.868-1.325 1.512-1.741a3.805 3.805 0 012.11-.633c1.236 0 2.197.408 2.882 1.222.686.815 1.029 1.981 1.029 3.498v.677h-6.443c.024.937.296 1.696.818 2.276.527.575 1.195.862 2.004.862.574 0 1.06-.118 1.459-.352a3.649 3.649 0 001.045-.932l.994.774c-.797 1.224-1.993 1.837-3.586 1.837zm-.202-8.526c-.657 0-1.207.241-1.653.721-.445.475-.72 1.143-.826 2.004h4.764v-.123c-.047-.826-.27-1.465-.668-1.916-.399-.457-.938-.686-1.617-.686zm10.397.299a4.879 4.879 0 00-.8-.061c-1.066 0-1.79.454-2.171 1.362V147h-1.626v-9.51h1.582l.027 1.099c.533-.85 1.289-1.275 2.267-1.275.317 0 .557.041.721.124v1.511zm4.148-3.761v2.302h1.776v1.257h-1.776v5.898c0 .38.08.667.238.861.158.187.428.281.808.281.188 0 .446-.035.774-.105V147a4.725 4.725 0 01-1.248.176c-.727 0-1.275-.22-1.644-.659-.369-.44-.553-1.064-.553-1.872v-5.898h-1.732v-1.257h1.732v-2.302h1.625zm5.45 11.812h-1.626v-9.51h1.626V147zm-1.758-12.032a.98.98 0 01.237-.668c.164-.182.404-.273.721-.273.316 0 .557.091.721.273a.959.959 0 01.246.668.93.93 0 01-.246.659c-.164.176-.405.264-.721.264-.317 0-.557-.088-.721-.264a.95.95 0 01-.237-.659zm8.183 10.881a2.34 2.34 0 001.52-.528c.434-.351.674-.791.721-1.318h1.538c-.029.545-.217 1.063-.563 1.556a3.69 3.69 0 01-1.388 1.177 3.971 3.971 0 01-1.828.44c-1.295 0-2.327-.431-3.094-1.292-.762-.867-1.143-2.051-1.143-3.551v-.272c0-.926.17-1.749.51-2.47.34-.721.826-1.28 1.459-1.679.639-.398 1.392-.598 2.259-.598 1.066 0 1.951.32 2.654.958.709.639 1.087 1.468 1.134 2.488h-1.538c-.047-.615-.282-1.119-.703-1.512-.416-.398-.932-.598-1.547-.598-.826 0-1.468.299-1.925.897-.451.592-.677 1.45-.677 2.575v.308c0 1.095.226 1.939.677 2.531.451.592 1.096.888 1.934.888zm9.553 1.327c-1.289 0-2.338-.422-3.146-1.266-.809-.849-1.213-1.983-1.213-3.401v-.299c0-.943.179-1.784.536-2.522.363-.745.867-1.325 1.512-1.741a3.8 3.8 0 012.109-.633c1.236 0 2.197.408 2.883 1.222.685.815 1.028 1.981 1.028 3.498v.677h-6.442c.023.937.296 1.696.817 2.276.528.575 1.196.862 2.004.862.574 0 1.061-.118 1.459-.352a3.653 3.653 0 001.046-.932l.993.774c-.797 1.224-1.992 1.837-3.586 1.837zm-.202-8.526c-.656 0-1.207.241-1.652.721-.446.475-.721 1.143-.826 2.004h4.763v-.123c-.047-.826-.269-1.465-.668-1.916-.398-.457-.937-.686-1.617-.686zm11.338 5.828c0-.44-.167-.78-.501-1.02-.328-.246-.905-.457-1.731-.633-.821-.176-1.474-.387-1.96-.633-.481-.246-.838-.539-1.073-.879-.228-.339-.342-.744-.342-1.212 0-.78.328-1.439.984-1.978.662-.539 1.506-.809 2.531-.809 1.078 0 1.951.279 2.619.835.674.557 1.011 1.269 1.011 2.136h-1.635c0-.445-.19-.829-.571-1.151-.375-.322-.85-.484-1.424-.484-.592 0-1.055.129-1.389.387-.334.258-.5.595-.5 1.011 0 .392.155.688.465.888.311.199.87.389 1.679.571.814.181 1.474.398 1.978.65.503.252.876.557 1.116.914.246.352.369.783.369 1.292 0 .85-.34 1.533-1.02 2.048-.679.51-1.561.765-2.645.765-.762 0-1.436-.135-2.022-.405-.586-.269-1.045-.644-1.379-1.125a2.75 2.75 0 01-.493-1.573h1.626c.03.545.246.979.651 1.301.41.316.949.475 1.617.475.615 0 1.107-.123 1.476-.37.375-.251.563-.585.563-1.001zM317.014 206.5a.5.5 0 00.486-.514l-.122-4.498a.499.499 0 10-.999.027l.108 3.999-3.999.108a.499.499 0 10.027.999l4.499-.121zm-19.358-18.137l19 18 .688-.726-19-18-.688.726zM317.354 257.354a.502.502 0 000-.708l-3.182-3.182a.502.502 0 00-.708.708l2.829 2.828-2.829 2.828a.502.502 0 00.708.708l3.182-3.182zM298 257.5h19v-1h-19v1zM317.5 308.013a.5.5 0 00-.487-.513l-4.499-.115a.5.5 0 10-.025.999l3.998.103-.102 3.999a.5.5 0 10.999.025l.116-4.498zm-20.156 19.349l20-19-.688-.725-20 19.001.688.724zM542.354 257.354a.502.502 0 000-.708l-3.182-3.182a.502.502 0 00-.708.708l2.829 2.828-2.829 2.828a.502.502 0 00.708.708l3.182-3.182zM519 257.5h23v-1h-23v1zM764.354 257.354a.502.502 0 000-.708l-3.182-3.182a.502.502 0 00-.708.708l2.829 2.828-2.829 2.828a.502.502 0 00.708.708l3.182-3.182zM741 257.5h23v-1h-23v1zM986.354 257.354a.502.502 0 000-.708l-3.182-3.182a.502.502 0 00-.708.708l2.829 2.828-2.829 2.828a.502.502 0 00.708.708l3.182-3.182zM963 257.5h23v-1h-23v1zM1211.35 257.354c.2-.196.2-.512 0-.708l-3.18-3.182a.504.504 0 00-.71 0 .511.511 0 000 .708l2.83 2.828-2.83 2.828a.511.511 0 000 .708c.2.195.52.195.71 0l3.18-3.182zm-23.35.146h23v-1h-23v1zM837.934 413.321c-.434.621-1.04 1.087-1.82 1.398-.773.304-1.676.457-2.707.457-1.043 0-1.969-.243-2.777-.73-.809-.492-1.436-1.189-1.881-2.092-.439-.902-.665-1.948-.677-3.137v-1.116c0-1.928.449-3.422 1.345-4.483.902-1.06 2.168-1.591 3.797-1.591 1.336 0 2.411.343 3.225 1.029.815.679 1.313 1.646 1.495 2.9h-1.688c-.316-1.693-1.324-2.54-3.023-2.54-1.131 0-1.99.398-2.576 1.195-.58.791-.873 1.94-.878 3.446v1.046c0 1.435.328 2.578.984 3.427.656.844 1.544 1.266 2.663 1.266.633 0 1.187-.07 1.661-.211a2.572 2.572 0 001.178-.712v-2.874h-2.962v-1.371h4.641v4.693zm4.517.299h6.065V415h-7.761v-12.797h1.696v11.417zm11.76-4.324c-1.447-.416-2.502-.926-3.164-1.529-.656-.61-.985-1.36-.985-2.25 0-1.008.402-1.84 1.205-2.496.808-.663 1.857-.994 3.146-.994.879 0 1.661.17 2.347.51.691.34 1.224.809 1.599 1.406.381.598.572 1.251.572 1.96h-1.697c0-.773-.246-1.38-.738-1.819-.492-.445-1.186-.668-2.083-.668-.832 0-1.482.185-1.951.554-.463.363-.694.87-.694 1.52 0 .522.219.964.659 1.327.445.358 1.198.686 2.259.985 1.066.299 1.898.63 2.496.993.603.357 1.048.776 1.336 1.257.293.48.439 1.046.439 1.696 0 1.037-.404 1.869-1.213 2.496-.808.621-1.89.932-3.243.932a6.061 6.061 0 01-2.461-.501c-.762-.34-1.351-.803-1.767-1.389a3.396 3.396 0 01-.615-1.995h1.696c0 .773.285 1.386.853 1.837.574.445 1.339.668 2.294.668.891 0 1.573-.182 2.048-.545.474-.363.712-.858.712-1.485 0-.627-.22-1.111-.659-1.451-.44-.345-1.237-.685-2.391-1.019zm8.613 4.324h6.065V415h-7.761v-12.797h1.696v11.417zm16.014.229c.58 0 1.087-.176 1.52-.528.434-.351.674-.791.721-1.318h1.538c-.029.545-.217 1.063-.562 1.556a3.7 3.7 0 01-1.389 1.177 3.968 3.968 0 01-1.828.44c-1.295 0-2.326-.431-3.094-1.292-.762-.867-1.142-2.051-1.142-3.551v-.272c0-.926.169-1.749.509-2.47.34-.721.827-1.28 1.459-1.679.639-.398 1.392-.598 2.259-.598 1.067 0 1.951.32 2.654.958.709.639 1.087 1.468 1.134 2.488h-1.538c-.047-.615-.281-1.119-.703-1.512-.416-.398-.932-.598-1.547-.598-.826 0-1.468.299-1.925.897-.451.592-.676 1.45-.676 2.575v.308c0 1.095.225 1.939.676 2.531.451.592 1.096.888 1.934.888zm5.177-3.692c0-.931.181-1.769.545-2.513.369-.745.878-1.319 1.529-1.723.656-.404 1.403-.607 2.241-.607 1.295 0 2.341.449 3.138 1.345.803.897 1.204 2.089 1.204 3.577v.115c0 .925-.179 1.757-.536 2.496a4.017 4.017 0 01-1.521 1.714c-.656.41-1.412.615-2.267.615-1.289 0-2.335-.448-3.138-1.345-.797-.896-1.195-2.083-1.195-3.56v-.114zm1.634.194c0 1.054.244 1.901.73 2.54.492.638 1.148.958 1.969.958.826 0 1.482-.323 1.968-.967.487-.651.73-1.559.73-2.725 0-1.043-.249-1.886-.747-2.531-.492-.65-1.149-.976-1.969-.976-.803 0-1.45.32-1.942.958-.492.639-.739 1.553-.739 2.743zm8.666-.185c0-1.459.346-2.631 1.038-3.516.691-.89 1.596-1.336 2.715-1.336 1.114 0 1.995.381 2.646 1.143V401.5h1.626V415h-1.494l-.079-1.02c-.651.797-1.556 1.196-2.716 1.196-1.102 0-2.001-.451-2.698-1.354-.692-.902-1.038-2.08-1.038-3.533v-.123zm1.626.185c0 1.078.223 1.921.668 2.531.446.609 1.061.914 1.846.914 1.031 0 1.784-.463 2.259-1.389v-4.368c-.486-.896-1.234-1.345-2.241-1.345-.797 0-1.418.308-1.864.923-.445.615-.668 1.527-.668 2.734zm12.876 4.825c-1.289 0-2.338-.422-3.146-1.266-.809-.849-1.213-1.983-1.213-3.401v-.299c0-.943.179-1.784.536-2.522.363-.745.867-1.325 1.512-1.741a3.8 3.8 0 012.109-.633c1.237 0 2.197.408 2.883 1.222.686.815 1.028 1.981 1.028 3.498v.677h-6.442c.023.937.296 1.696.817 2.276.528.575 1.196.862 2.004.862.574 0 1.061-.118 1.459-.352a3.653 3.653 0 001.046-.932l.993.774c-.797 1.224-1.992 1.837-3.586 1.837zm-.202-8.526c-.656 0-1.207.241-1.652.721-.445.475-.721 1.143-.826 2.004h4.763v-.123c-.046-.826-.269-1.465-.668-1.916-.398-.457-.937-.686-1.617-.686zM737.965 307.501a.5.5 0 00-.464.534l.316 4.489a.5.5 0 10.997-.07l-.28-3.99 3.99-.281a.5.5 0 10-.07-.997l-4.489.315zm99.363 86.122l-99-86-.656.754 99 86 .656-.754zM989.5 307.997a.5.5 0 00-.503-.497l-4.5.026a.5.5 0 00.006 1l4-.023.023 4a.5.5 0 001-.006l-.026-4.5zm-85.144 86.354l85-86-.712-.702-85 86 .712.702z" fill="#000"/></svg>